PathFileType	4	(X/Y/Z)	C:/Users/opensim2020/Desktop/walking_exp_matlab/subject03_walking14_straight_04.trc																																																																																																																																											
DataRate	CameraRate	NumFrames	NumMarkers	Units	OrigDataRate	OrigDataStartFrame	OrigNumFrames																																																																																																																																							
100	100	4	47	mm	100	2310	177																																																																																																																																							
Frame#	Time	LFHD			RFHD			LBHD			RBHD			C7			T10			CLAV			STRN			RBAK			LSHO			LUPA			LELB			LFRM			LWRA			LWRB			LFIN			RSHO			RUPA			RELB			RFRM			RWRA			RWRB			RFIN			LASI			RASI			LPSI			RPSI			LTHI			LKNE			LTIB			LANK			LHEE			LTOE			RTHI			RKNE			RTIB			RANK			RHEE			RTOE			*39			*40			*41			*42			*43			*44			*45			*46		
		X1	Y1	Z1	X2	Y2	Z2	X3	Y3	Z3	X4	Y4	Z4	X5	Y5	Z5	X6	Y6	Z6	X7	Y7	Z7	X8	Y8	Z8	X9	Y9	Z9	X10	Y10	Z10	X11	Y11	Z11	X12	Y12	Z12	X13	Y13	Z13	X14	Y14	Z14	X15	Y15	Z15	X16	Y16	Z16	X17	Y17	Z17	X18	Y18	Z18	X19	Y19	Z19	X20	Y20	Z20	X21	Y21	Z21	X22	Y22	Z22	X23	Y23	Z23	X24	Y24	Z24	X25	Y25	Z25	X26	Y26	Z26	X27	Y27	Z27	X28	Y28	Z28	X29	Y29	Z29	X30	Y30	Z30	X31	Y31	Z31	X32	Y32	Z32	X33	Y33	Z33	X34	Y34	Z34	X35	Y35	Z35	X36	Y36	Z36	X37	Y37	Z37	X38	Y38	Z38	X39	Y39	Z39	X40	Y40	Z40	X41	Y41	Z41	X42	Y42	Z42	X43	Y43	Z43	X44	Y44	Z44	X45	Y45	Z45	X46	Y46	Z46	X47	Y47	Z47
																																																																																																																																														
133	1.32	667.28723	1618.26721	940.74487	659.65216	1625.7981	1072.15674	537.89624	1577.50659	939.31122	535.32648	1584.44348	1068.97107	504.80612	1415.245	1002.3988	480.89752	1100.10156	998.04779	628.53217	1343.29126	1002.49231	677.46234	1179.95752	994.07806	458.5358	1236.10754	1098.2168	578.46857	1380.64795	847.50873	577.09454	1184.54126	773.91742	592.086	1061.88635	761.05469	623.45013	934.68713	759.60919	646.72852	816.88586	787.11841	624.12793	821.89575	735.80969	641.07166	738.56738	745.65723	577.99335	1367.63074	1161.3667	612.05646	1152.95483	1241.95789	652.76306	1048.91309	1257.15955	717.90643	929.14972	1254.55701	781.94885	855.32629	1214.71118	755.521	836.32446	1257.53638	805.14301	782.05273	1245.95996	654.56134	940.34955	885.23651	646.62219	944.41449	1121.90515	491.11469	954.80133	928.33264	487.30002	971.33063	1076.60815	677.70148	644.78607	830.57404	739.0296	477.50128	860.9707	699.19275	281.76422	862.33734	691.53412	72.53471	902.9201	653.05957	37.06486	944.65942	838.72113	38.70812	921.33936	568.70911	649.05804	1156.30811	560.66071	470.32367	1118.21729	486.84641	290.72644	1115.83618	431.46136	81.49165	1061.1261	385.40442	56.80302	1008.24884	570.3692	30.25864	1043.44922	NaN	NaN	NaN	583.89465	1682.40332	986.48303	NaN	NaN	NaN	NaN	NaN	NaN	NaN	NaN	NaN	NaN	NaN	NaN	NaN	NaN	NaN	NaN	NaN	NaN
134	1.33	678.57727	1617.1001	940.31781	670.95074	1624.47729	1071.71851	549.55176	1575.84937	938.90521	546.66321	1582.88123	1068.76892	516.43475	1413.65283	1001.87543	492.71335	1098.6084	996.95105	640.27893	1341.82727	1002.47137	689.35565	1178.49622	994.56793	469.86456	1234.73608	1097.49927	591.1554	1378.97021	847.15295	587.79156	1182.74731	773.81403	601.31177	1060.07373	760.35571	629.34717	932.01563	758.04767	648.40601	813.06561	784.52856	626.75702	819.51886	732.9353	639.8349	734.9375	742.25903	589.06573	1366.26392	1161.09949	624.45831	1152.19751	1242.3916	666.84351	1049.05566	1257.71777	735.71185	931.56427	1254.3158	802.37158	860.54889	1213.89758	776.3623	840.00543	1256.27869	827.89508	787.61542	1244.29907	668.39423	938.72211	885.78253	657.09296	942.81519	1122.68433	503.82956	953.39349	927.16748	498.0296	970.23181	1074.98779	690.76477	642.89026	830.99811	752.17657	475.77463	862.82758	722.17615	279.16873	863.89374	728.74982	69.41509	903.15967	692.67279	32.93085	945.15637	878.34253	41.12185	921.23322	576.73059	648.21045	1156.26184	566.7373	469.55469	1118.37512	490.54388	290.82599	1115.65637	432.36526	82.07817	1060.41846	385.73224	58.15092	1007.88214	570.42462	30.07929	1043.23157	NaN	NaN	NaN	595.0249	1681.06689	985.89777	NaN	NaN	NaN	NaN	NaN	NaN	NaN	NaN	NaN	NaN	NaN	NaN	NaN	NaN	NaN	NaN	NaN	NaN
135	1.34	689.83154	1615.57764	939.99353	682.18121	1622.9657	1071.54163	560.96759	1574.10938	938.67023	558.01904	1581.073	1068.43079	528.46625	1411.92615	1000.76215	504.61447	1096.95776	995.63885	652.10291	1340.15637	1002.43311	701.30872	1176.80566	995.09705	481.21118	1233.08655	1096.61951	603.83301	1377.16028	846.83453	599.06732	1180.79407	773.35028	610.79572	1058.00781	759.52222	635.45105	929.3573	756.35303	649.21387	808.93463	782.6958	629.8606	817.28546	729.99841	638.68573	731.84857	739.01794	600.20612	1364.81665	1161.0144	636.63525	1151.16895	1242.77515	680.56744	1048.96997	1258.2345	753.05896	933.80505	1254.00208	822.11694	865.57672	1213.10168	796.66132	843.62262	1255.00854	850.06073	793.24866	1242.69592	681.81671	936.56757	886.46484	667.48553	940.84106	1123.60107	516.93774	951.6709	925.94824	509.74506	968.09045	1073.97156	702.37799	640.28851	831.92706	763.95081	473.58432	864.99835	744.12561	277.008	865.42285	764.96936	67.58157	902.77808	731.6568	30.53517	945.47571	916.93683	44.69365	920.83398	584.88147	647.28387	1156.22742	573.008	468.64319	1118.32849	494.41806	290.87589	1115.48621	433.04712	83.04158	1060.08521	386.07108	59.56372	1007.55817	570.55292	30.2152	1043.41858	NaN	NaN	NaN	606.15906	1678.87317	985.00916	NaN	NaN	NaN	NaN	NaN	NaN	NaN	NaN	NaN	NaN	NaN	NaN	NaN	NaN	NaN	NaN	NaN	NaN
136	1.35	701.12738	1613.99048	939.64978	693.45624	1621.72791	1071.08789	572.55621	1572.2002	938.22998	569.39404	1579.18774	1068.11194	540.27264	1409.93909	1000.29309	516.75348	1095.10828	994.25165	664.13263	1338.34729	1002.42389	713.34955	1174.94531	995.63647	492.62836	1231.36377	1095.74719	616.59192	1375.18103	846.50275	610.46893	1178.77722	772.73792	620.06622	1056.04077	758.53137	641.77374	926.71881	754.57666	651.88843	805.55927	780.01996	633.11536	815.02582	727.3031	637.93488	728.9245	735.72571	611.46735	1363.03149	1160.64429	648.63641	1149.93335	1243.07166	694.13647	1048.63098	1258.61475	769.95154	935.85126	1253.53784	841.19415	870.48944	1212.25085	816.38647	847.00409	1253.60901	871.59412	798.88837	1241.19324	695.28473	934.31885	887.02295	678.46411	939.12775	1124.13538	530.00806	949.84747	924.58118	521.13458	966.37317	1072.50293	713.52899	637.15643	832.71631	775.86383	471.13742	867.33051	765.29517	275.37271	866.89825	799.89563	67.00408	901.88013	768.50763	29.30947	944.41187	953.83716	49.34926	920.08679	593.25861	646.30872	1156.39221	579.41357	467.68939	1118.2218	498.38718	290.90454	1115.23059	433.69318	84.0774	1059.67737	386.38171	61.07163	1007.14813	570.65009	30.25063	1043.06165	NaN	NaN	NaN	617.46198	1676.94385	984.40228	NaN	NaN	NaN	NaN	NaN	NaN	NaN	NaN	NaN	NaN	NaN	NaN	NaN	NaN	NaN	NaN	NaN	NaN
